<svg width="74" height="204" viewBox="0 0 74 204" fill="none" xmlns="http://www.w3.org/2000/svg">
<g opacity="0.1">
<circle cx="71" cy="201" r="3" transform="rotate(180 71 201)" fill="white"/>
<circle cx="53" cy="201" r="3" transform="rotate(180 53 201)" fill="white"/>
<circle cx="35" cy="201" r="3" transform="rotate(180 35 201)" fill="white"/>
<circle cx="17" cy="201" r="3" transform="rotate(180 17 201)" fill="white"/>
<circle cx="-1" cy="201" r="3" transform="rotate(180 -1 201)" fill="white"/>
<circle cx="71" cy="183" r="3" transform="rotate(180 71 183)" fill="white"/>
<circle cx="71" cy="165" r="3" transform="rotate(180 71 165)" fill="white"/>
<circle cx="71" cy="147" r="3" transform="rotate(180 71 147)" fill="white"/>
<circle cx="71" cy="129" r="3" transform="rotate(180 71 129)" fill="white"/>
<circle cx="71" cy="111" r="3" transform="rotate(180 71 111)" fill="white"/>
<circle cx="71" cy="93" r="3" transform="rotate(180 71 93)" fill="white"/>
<circle cx="71" cy="75" r="3" transform="rotate(180 71 75)" fill="white"/>
<circle cx="71" cy="57" r="3" transform="rotate(180 71 57)" fill="white"/>
<circle cx="71" cy="39" r="3" transform="rotate(180 71 39)" fill="white"/>
<circle cx="71" cy="21" r="3" transform="rotate(180 71 21)" fill="white"/>
<circle cx="71" cy="3" r="3" transform="rotate(180 71 3)" fill="white"/>
<circle cx="53" cy="183" r="3" transform="rotate(180 53 183)" fill="white"/>
<circle cx="53" cy="165" r="3" transform="rotate(180 53 165)" fill="white"/>
<circle cx="53" cy="147" r="3" transform="rotate(180 53 147)" fill="white"/>
<circle cx="53" cy="129" r="3" transform="rotate(180 53 129)" fill="white"/>
<circle cx="53" cy="111" r="3" transform="rotate(180 53 111)" fill="white"/>
<circle cx="53" cy="93" r="3" transform="rotate(180 53 93)" fill="white"/>
<circle cx="53" cy="75" r="3" transform="rotate(180 53 75)" fill="white"/>
<circle cx="53" cy="57" r="3" transform="rotate(180 53 57)" fill="white"/>
<circle cx="53" cy="39" r="3" transform="rotate(180 53 39)" fill="white"/>
<circle cx="53" cy="21" r="3" transform="rotate(180 53 21)" fill="white"/>
<circle cx="53" cy="3" r="3" transform="rotate(180 53 3)" fill="white"/>
<circle cx="35" cy="183" r="3" transform="rotate(180 35 183)" fill="white"/>
<circle cx="35" cy="165" r="3" transform="rotate(180 35 165)" fill="white"/>
<circle cx="35" cy="147" r="3" transform="rotate(180 35 147)" fill="white"/>
<circle cx="35" cy="129" r="3" transform="rotate(180 35 129)" fill="white"/>
<circle cx="35" cy="111" r="3" transform="rotate(180 35 111)" fill="white"/>
<circle cx="35" cy="93" r="3" transform="rotate(180 35 93)" fill="white"/>
<circle cx="35" cy="75" r="3" transform="rotate(180 35 75)" fill="white"/>
<circle cx="35" cy="57" r="3" transform="rotate(180 35 57)" fill="white"/>
<circle cx="35" cy="39" r="3" transform="rotate(180 35 39)" fill="white"/>
<circle cx="35" cy="21" r="3" transform="rotate(180 35 21)" fill="white"/>
<circle cx="35" cy="3" r="3" transform="rotate(180 35 3)" fill="white"/>
<circle cx="17" cy="183" r="3" transform="rotate(180 17 183)" fill="white"/>
<circle cx="17" cy="165" r="3" transform="rotate(180 17 165)" fill="white"/>
<circle cx="17" cy="147" r="3" transform="rotate(180 17 147)" fill="white"/>
<circle cx="17" cy="129" r="3" transform="rotate(180 17 129)" fill="white"/>
<circle cx="17" cy="111" r="3" transform="rotate(180 17 111)" fill="white"/>
<circle cx="17" cy="93" r="3" transform="rotate(180 17 93)" fill="white"/>
<circle cx="17" cy="75" r="3" transform="rotate(180 17 75)" fill="white"/>
<circle cx="17" cy="57" r="3" transform="rotate(180 17 57)" fill="white"/>
<circle cx="17" cy="39" r="3" transform="rotate(180 17 39)" fill="white"/>
<circle cx="17" cy="21" r="3" transform="rotate(180 17 21)" fill="white"/>
<circle cx="17" cy="3" r="3" transform="rotate(180 17 3)" fill="white"/>
<circle cx="-1" cy="183" r="3" transform="rotate(180 -1 183)" fill="white"/>
<circle cx="-1" cy="165" r="3" transform="rotate(180 -1 165)" fill="white"/>
<circle cx="-1" cy="147" r="3" transform="rotate(180 -1 147)" fill="white"/>
<circle cx="-1" cy="129" r="3" transform="rotate(180 -1 129)" fill="white"/>
<circle cx="-1" cy="111" r="3" transform="rotate(180 -1 111)" fill="white"/>
<circle cx="-1" cy="93" r="3" transform="rotate(180 -1 93)" fill="white"/>
<circle cx="-1" cy="75" r="3" transform="rotate(180 -1 75)" fill="white"/>
<circle cx="-1" cy="57" r="3" transform="rotate(180 -1 57)" fill="white"/>
<circle cx="-1" cy="39" r="3" transform="rotate(180 -1 39)" fill="white"/>
<circle cx="-1" cy="21" r="3" transform="rotate(180 -1 21)" fill="white"/>
<circle cx="-1" cy="3" r="3" transform="rotate(180 -1 3)" fill="white"/>
</g>
</svg>
