<svg width="66" height="204" viewBox="0 0 66 204" fill="none" xmlns="http://www.w3.org/2000/svg">
<g opacity="0.1">
<circle cx="63" cy="201" r="3" transform="rotate(180 63 201)" fill="white"/>
<circle cx="45" cy="201" r="3" transform="rotate(180 45 201)" fill="white"/>
<circle cx="27" cy="201" r="3" transform="rotate(180 27 201)" fill="white"/>
<circle cx="9" cy="201" r="3" transform="rotate(180 9 201)" fill="white"/>
<circle cx="63" cy="183" r="3" transform="rotate(180 63 183)" fill="white"/>
<circle cx="63" cy="165" r="3" transform="rotate(180 63 165)" fill="white"/>
<circle cx="63" cy="147" r="3" transform="rotate(180 63 147)" fill="white"/>
<circle cx="63" cy="129" r="3" transform="rotate(180 63 129)" fill="white"/>
<circle cx="63" cy="111" r="3" transform="rotate(180 63 111)" fill="white"/>
<circle cx="63" cy="93" r="3" transform="rotate(180 63 93)" fill="white"/>
<circle cx="63" cy="75" r="3" transform="rotate(180 63 75)" fill="white"/>
<circle cx="63" cy="57" r="3" transform="rotate(180 63 57)" fill="white"/>
<circle cx="63" cy="39" r="3" transform="rotate(180 63 39)" fill="white"/>
<circle cx="63" cy="21" r="3" transform="rotate(180 63 21)" fill="white"/>
<circle cx="63" cy="3" r="3" transform="rotate(180 63 3)" fill="white"/>
<circle cx="45" cy="183" r="3" transform="rotate(180 45 183)" fill="white"/>
<circle cx="45" cy="165" r="3" transform="rotate(180 45 165)" fill="white"/>
<circle cx="45" cy="147" r="3" transform="rotate(180 45 147)" fill="white"/>
<circle cx="45" cy="129" r="3" transform="rotate(180 45 129)" fill="white"/>
<circle cx="45" cy="111" r="3" transform="rotate(180 45 111)" fill="white"/>
<circle cx="45" cy="93" r="3" transform="rotate(180 45 93)" fill="white"/>
<circle cx="45" cy="75" r="3" transform="rotate(180 45 75)" fill="white"/>
<circle cx="45" cy="57" r="3" transform="rotate(180 45 57)" fill="white"/>
<circle cx="45" cy="39" r="3" transform="rotate(180 45 39)" fill="white"/>
<circle cx="45" cy="21" r="3" transform="rotate(180 45 21)" fill="white"/>
<circle cx="45" cy="3" r="3" transform="rotate(180 45 3)" fill="white"/>
<circle cx="27" cy="183" r="3" transform="rotate(180 27 183)" fill="white"/>
<circle cx="27" cy="165" r="3" transform="rotate(180 27 165)" fill="white"/>
<circle cx="27" cy="147" r="3" transform="rotate(180 27 147)" fill="white"/>
<circle cx="27" cy="129" r="3" transform="rotate(180 27 129)" fill="white"/>
<circle cx="27" cy="111" r="3" transform="rotate(180 27 111)" fill="white"/>
<circle cx="27" cy="93" r="3" transform="rotate(180 27 93)" fill="white"/>
<circle cx="27" cy="75" r="3" transform="rotate(180 27 75)" fill="white"/>
<circle cx="27" cy="57" r="3" transform="rotate(180 27 57)" fill="white"/>
<circle cx="27" cy="39" r="3" transform="rotate(180 27 39)" fill="white"/>
<circle cx="27" cy="21" r="3" transform="rotate(180 27 21)" fill="white"/>
<circle cx="27" cy="3" r="3" transform="rotate(180 27 3)" fill="white"/>
<circle cx="9" cy="183" r="3" transform="rotate(180 9 183)" fill="white"/>
<circle cx="9" cy="165" r="3" transform="rotate(180 9 165)" fill="white"/>
<circle cx="9" cy="147" r="3" transform="rotate(180 9 147)" fill="white"/>
<circle cx="9" cy="129" r="3" transform="rotate(180 9 129)" fill="white"/>
<circle cx="9" cy="111" r="3" transform="rotate(180 9 111)" fill="white"/>
<circle cx="9" cy="93" r="3" transform="rotate(180 9 93)" fill="white"/>
<circle cx="9" cy="75" r="3" transform="rotate(180 9 75)" fill="white"/>
<circle cx="9" cy="57" r="3" transform="rotate(180 9 57)" fill="white"/>
<circle cx="9" cy="39" r="3" transform="rotate(180 9 39)" fill="white"/>
<circle cx="9" cy="21" r="3" transform="rotate(180 9 21)" fill="white"/>
<circle cx="8.99997" cy="3" r="3" transform="rotate(180 8.99997 3)" fill="white"/>
</g>
</svg>
